<?xml version="1.0" standalone="no"?>
<!DOCTYPE svg PUBLIC "-//W3C//DTD SVG 20010904//EN"
 "http://www.w3.org/TR/2001/REC-SVG-20010904/DTD/svg10.dtd">
<svg version="1.0" xmlns="http://www.w3.org/2000/svg"
 width="675.000000pt" height="675.000000pt" viewBox="0 0 675.000000 675.000000"
 preserveAspectRatio="xMidYMid meet">
<metadata>
Created by potrace 1.14, written by Peter Selinger 2001-2017
</metadata>
<g transform="translate(0.000000,675.000000) scale(0.100000,-0.100000)"
fill="#000000" stroke="none">
<path d="M3019 6727 c-1 -1 -3 -120 -4 -265 -2 -145 -6 -266 -9 -269 -3 -3
-20 -7 -38 -9 -18 -1 -49 -5 -68 -9 -19 -4 -48 -9 -65 -10 -16 -2 -32 -4 -35
-5 -3 -1 -9 -3 -15 -5 -5 -1 -13 -3 -17 -5 -5 -1 -12 -4 -18 -5 -5 -1 -11 -3
-12 -5 -12 -9 -39 -5 -49 6 -6 8 -17 14 -25 14 -7 0 -19 6 -26 13 -20 20 -92
62 -100 59 -5 -1 -8 5 -8 14 0 8 -4 13 -9 9 -5 -3 -16 2 -24 10 -9 8 -21 15
-27 15 -6 0 -8 5 -5 10 4 6 3 9 -2 8 -12 -4 -73 25 -73 34 0 5 -5 8 -11 8 -16
0 -149 91 -149 102 0 5 -4 7 -9 3 -5 -3 -12 -1 -16 5 -3 5 -13 10 -22 10 -11
0 -14 -8 -11 -30 3 -17 0 -33 -5 -37 -5 -3 -3 -10 4 -15 11 -7 11 -11 1 -15
-6 -2 -9 -10 -5 -16 8 -13 13 -60 16 -139 1 -27 5 -48 9 -48 4 0 3 -12 -2 -26
-6 -15 -6 -23 -1 -19 6 3 10 -3 10 -12 0 -10 2 -30 4 -45 2 -15 0 -25 -4 -22
-5 3 -9 0 -9 -5 0 -6 5 -11 10 -11 7 0 7 -6 0 -20 -6 -11 -7 -20 -2 -20 12 0
11 -32 -2 -49 -8 -11 -8 -13 2 -7 6 4 12 2 12 -3 0 -6 -4 -11 -10 -11 -5 0
-10 -7 -10 -15 0 -8 -3 -14 -7 -13 -12 3 -87 -31 -94 -43 -3 -5 -15 -11 -27
-12 -11 0 -19 -4 -17 -8 3 -3 -13 -14 -35 -24 -22 -10 -37 -22 -33 -28 3 -6 1
-7 -5 -3 -6 3 -17 -1 -25 -9 -9 -8 -18 -15 -22 -15 -3 0 -15 -9 -27 -20 -12
-10 -25 -17 -29 -15 -4 3 -10 -4 -14 -15 -4 -11 -10 -18 -14 -15 -5 2 -20 -6
-34 -19 -14 -13 -28 -22 -30 -20 -2 2 -12 -5 -22 -16 -10 -11 -24 -20 -30 -20
-7 0 -16 -7 -19 -16 -3 -8 -10 -13 -15 -9 -5 3 -12 -4 -16 -15 -3 -11 -13 -20
-20 -20 -8 0 -19 -9 -25 -21 -7 -11 -14 -19 -17 -16 -2 3 -34 -24 -69 -59 -36
-35 -70 -64 -76 -64 -6 0 -9 -2 -7 -5 3 -2 -25 -37 -63 -76 -37 -39 -68 -75
-68 -81 0 -6 -3 -9 -6 -5 -6 6 -66 -57 -64 -68 0 -3 -11 -16 -25 -29 -14 -13
-25 -26 -25 -30 0 -8 -13 -24 -48 -61 -13 -14 -20 -25 -18 -25 6 0 -16 -29
-42 -56 -7 -8 -10 -14 -5 -14 4 0 3 -4 -3 -8 -18 -12 -67 -82 -58 -82 5 0 2
-6 -7 -13 -14 -11 -50 -70 -49 -82 0 -3 -9 -14 -20 -25 -11 -11 -20 -26 -20
-34 0 -8 -5 -16 -10 -18 -6 -2 -12 -13 -13 -25 0 -12 -5 -19 -9 -17 -7 5 -10
-3 -7 -22 0 -4 -4 -10 -9 -13 -6 -3 -12 -13 -14 -21 -2 -8 -9 -21 -16 -28 -7
-8 -10 -18 -6 -23 3 -5 -2 -12 -10 -15 -9 -3 -14 -10 -11 -14 3 -5 -1 -15 -9
-23 -8 -8 -13 -17 -10 -20 3 -3 -1 -18 -9 -34 -32 -59 -48 -104 -41 -115 4 -6
3 -8 -3 -5 -6 4 -14 -5 -18 -21 -3 -15 -12 -34 -19 -42 -7 -8 -12 -22 -11 -30
0 -8 -6 -21 -13 -29 -7 -7 -11 -20 -8 -27 3 -8 2 -14 -3 -14 -7 0 -9 -7 -13
-50 -1 -11 -6 -20 -11 -20 -5 0 -7 -7 -4 -15 4 -8 2 -17 -4 -20 -5 -4 -7 -11
-4 -16 4 -5 1 -9 -6 -9 -7 0 -9 -3 -6 -7 4 -3 1 -13 -6 -21 -10 -13 -9 -14 1
-8 10 6 10 2 0 -21 -6 -15 -17 -34 -22 -42 -8 -11 -8 -13 2 -7 14 8 16 -6 3
-19 -9 -9 -23 -62 -24 -92 0 -7 -4 -13 -9 -13 -5 0 -7 -4 -4 -8 3 -4 1 -26 -4
-49 -5 -22 -10 -55 -11 -74 -2 -19 -7 -42 -12 -53 -7 -14 -6 -17 5 -10 10 6
11 5 2 -7 -10 -13 -16 -73 -18 -181 -1 -27 -4 -48 -8 -48 -9 0 -6 -30 5 -46 3
-6 3 -14 -1 -18 -11 -12 -9 -126 2 -126 6 0 5 -4 -2 -9 -13 -8 -13 -85 1 -108
4 -6 1 -13 -5 -16 -10 -3 -10 -7 0 -19 9 -11 10 -18 2 -23 -6 -3 -8 -11 -5
-16 6 -9 18 -127 17 -161 0 -10 4 -21 10 -24 6 -4 5 -9 -3 -15 -11 -6 -11 -11
-2 -20 9 -9 9 -18 2 -32 -7 -11 -7 -17 -1 -13 5 3 10 -6 10 -19 0 -14 -4 -28
-9 -30 -4 -3 -1 -17 6 -32 8 -15 12 -30 9 -35 -3 -4 0 -8 7 -8 7 0 9 -10 7
-25 -4 -17 -1 -25 8 -25 9 0 14 -12 14 -33 0 -19 3 -37 7 -41 4 -3 8 -19 10
-34 3 -28 10 -65 13 -69 2 -2 4 -7 5 -13 1 -5 4 -11 5 -12 2 -2 4 -19 5 -38 2
-19 4 -39 4 -43 1 -5 5 -5 11 -2 6 3 7 -1 4 -9 -3 -9 -1 -16 4 -16 6 0 14 -16
18 -35 3 -19 10 -38 15 -41 5 -3 7 -10 3 -15 -3 -5 -1 -16 5 -23 6 -7 9 -22 6
-34 -2 -12 1 -21 7 -19 6 1 12 -7 14 -17 1 -10 9 -23 16 -27 10 -7 10 -9 -2
-10 -10 0 -8 -3 5 -9 14 -6 15 -9 5 -10 -12 0 -11 -3 2 -11 10 -5 18 -15 18
-21 0 -6 14 -26 30 -45 33 -37 38 -53 15 -53 -8 0 -15 -7 -15 -15 0 -8 -7 -15
-16 -15 -8 0 -13 -4 -10 -9 3 -5 -1 -12 -10 -15 -9 -4 -14 -13 -10 -21 3 -8 0
-14 -7 -12 -7 1 -11 -4 -10 -11 2 -6 -3 -12 -11 -12 -7 0 -21 -15 -30 -33 -8
-17 -16 -28 -16 -22 0 5 -12 -8 -27 -30 -14 -22 -29 -42 -33 -45 -4 -3 -15
-20 -25 -37 -11 -18 -23 -33 -27 -33 -4 0 -8 -6 -8 -13 0 -7 -9 -23 -19 -34
-11 -12 -17 -23 -14 -26 3 -4 -1 -13 -8 -21 -32 -35 -41 -53 -42 -83 0 -7 -4
-10 -9 -7 -4 3 -9 0 -9 -5 -1 -6 -3 -15 -4 -21 -1 -5 -3 -15 -4 -21 0 -5 -5
-8 -10 -4 -6 3 -8 -4 -6 -15 2 -11 -1 -20 -7 -20 -5 0 -8 -7 -4 -15 3 -8 1
-15 -5 -15 -6 0 -7 -4 -4 -10 3 -5 1 -10 -5 -10 -6 0 -8 -5 -5 -11 4 -5 0 -18
-7 -27 -25 -29 -33 -46 -17 -37 11 7 11 6 -1 -9 -14 -18 -21 -37 -23 -68 -1
-10 -4 -18 -8 -18 -4 0 -10 -7 -13 -16 -4 -9 -2 -13 5 -8 8 4 7 0 0 -15 -7
-12 -9 -25 -6 -30 3 -5 1 -11 -4 -13 -8 -3 -23 -94 -24 -138 0 -8 -4 -21 -10
-27 -6 -9 -6 -13 3 -13 10 0 10 -3 0 -15 -10 -12 -10 -15 1 -15 9 0 10 -3 3
-8 -6 -4 -11 -35 -11 -68 0 -34 -3 -67 -7 -73 -4 -6 -1 -11 6 -11 8 0 9 -3 2
-8 -9 -6 -10 -45 -2 -242 1 -25 7 -48 13 -52 6 -5 5 -8 -4 -8 -9 0 -10 -4 -4
-12 6 -7 10 -20 10 -28 0 -24 13 -91 19 -101 3 -5 -1 -9 -8 -9 -9 -1 -8 -4 3
-10 9 -5 15 -19 14 -32 -1 -13 3 -28 9 -34 11 -11 87 -14 80 -3 -2 3 15 11 37
18 22 7 38 15 35 19 -3 5 5 9 17 9 12 1 23 7 25 13 2 5 8 8 13 4 5 -3 9 0 9 6
0 6 5 8 10 5 6 -3 13 1 16 9 3 9 10 13 15 10 5 -3 9 0 9 5 0 6 7 11 15 11 8 0
15 7 15 16 0 8 4 13 8 10 5 -3 23 8 42 24 19 16 37 27 41 25 4 -3 9 5 12 16 3
12 10 18 16 15 5 -4 12 -2 16 4 4 6 11 8 16 5 5 -4 9 -2 9 4 0 5 12 16 28 24
109 57 137 73 140 80 2 4 8 5 13 1 5 -3 9 0 9 6 0 6 4 9 9 6 5 -3 14 0 20 8 7
8 27 17 46 20 19 4 35 11 35 16 0 6 3 9 8 8 15 -3 62 15 62 24 0 5 4 7 8 4 5
-3 21 1 36 9 14 8 24 10 21 4 -4 -5 10 0 30 11 20 11 40 18 46 15 5 -4 9 -3 9
2 0 4 156 8 348 7 318 0 356 -2 457 -22 61 -13 121 -24 135 -26 68 -8 127 -18
140 -23 8 -3 30 -7 48 -9 18 -2 48 -8 65 -13 18 -6 79 -20 137 -31 58 -11 134
-27 170 -35 36 -8 110 -19 165 -26 92 -10 142 -29 130 -48 -2 -4 17 -20 42
-35 51 -33 75 -35 248 -23 61 5 137 10 170 11 33 2 94 7 135 12 73 8 116 9
410 3 147 -2 253 5 295 21 12 5 40 24 61 44 30 28 50 37 94 42 31 4 61 14 68
23 10 12 12 12 6 1 -7 -13 -5 -13 9 -1 9 7 17 11 17 7 0 -3 15 0 34 8 19 8 37
12 40 8 3 -3 6 0 6 7 0 7 7 11 15 8 8 -4 17 -2 20 4 4 5 11 7 16 4 5 -4 9 -1
9 5 0 6 4 9 9 5 5 -3 15 0 23 7 7 7 22 15 33 16 11 2 21 8 23 12 2 5 9 7 16 4
7 -3 23 4 36 16 27 23 34 25 25 7 -4 -6 0 -4 8 5 8 10 17 15 20 11 4 -3 9 1
13 10 3 9 11 14 19 11 7 -3 19 2 28 10 9 9 20 16 26 16 6 0 11 6 11 13 0 9 2
9 9 -1 7 -11 9 -11 14 2 4 9 13 16 22 16 8 0 15 5 15 11 0 5 4 8 9 5 4 -3 19
3 31 14 12 11 27 17 33 13 5 -3 7 -1 4 4 -6 10 9 22 25 19 4 0 14 8 22 19 9
11 16 16 16 12 0 -4 12 4 27 18 15 14 33 25 40 25 7 0 13 5 13 12 0 6 3 9 6 6
3 -4 14 1 23 10 38 37 72 62 82 62 5 0 7 5 4 10 -6 9 8 14 28 11 5 -1 6 2 4 6
-3 5 1 14 9 21 8 7 14 10 14 8 0 -3 16 10 36 29 20 19 40 35 44 35 5 0 12 9
15 20 4 12 15 20 28 20 18 0 19 2 7 10 -13 8 -12 10 3 10 9 0 17 7 17 15 0 8
4 14 8 12 4 -1 20 10 35 26 16 15 25 27 21 27 -5 0 6 11 24 23 17 13 29 27 26
30 -8 8 46 -2 60 -10 17 -11 55 -12 62 -2 4 6 11 6 19 -1 9 -8 15 -8 20 0 3 6
11 7 17 4 6 -4 8 -2 4 4 -3 6 7 19 24 28 16 10 30 21 30 24 0 4 9 16 20 28 12
12 18 22 14 22 -4 0 1 9 11 20 10 11 14 20 10 20 -5 0 0 7 11 15 10 8 15 15
10 15 -5 0 -3 7 4 15 6 8 9 19 5 25 -3 5 -2 10 3 10 12 0 34 49 27 60 -3 5 -1
11 5 15 5 3 10 15 10 26 0 10 4 19 8 19 5 0 9 6 10 13 3 35 15 83 23 92 5 5 9
22 9 37 0 15 5 28 10 28 7 0 7 7 -1 21 -6 12 -7 19 -1 15 5 -3 12 3 15 14 3
10 0 21 -7 24 -8 3 -7 5 1 5 7 1 10 8 6 18 -5 12 -3 14 7 8 10 -6 11 -4 4 6
-13 21 -14 39 -2 39 7 0 7 5 -1 13 -8 10 -7 17 1 25 9 9 9 12 0 12 -9 0 -10 5
-2 19 7 14 7 22 0 26 -6 4 -7 12 -3 18 11 15 10 38 -1 56 -7 10 -6 12 4 6 10
-6 12 -4 7 8 -3 10 -3 17 2 17 5 0 7 11 6 25 -2 14 1 27 6 31 5 3 9 10 9 15 0
6 -5 7 -11 4 -7 -5 -8 -1 -1 11 5 11 15 33 22 49 7 17 17 40 23 52 5 11 6 26
3 32 -4 7 -1 9 8 5 11 -4 17 4 21 30 4 21 11 33 18 29 6 -3 7 -1 3 5 -4 7 -4
18 1 24 4 7 8 16 9 21 1 4 2 8 4 10 3 3 11 48 13 75 1 12 6 22 11 22 4 0 6 7
2 15 -3 8 -2 15 3 15 4 0 8 6 9 13 1 6 3 23 5 37 1 14 6 31 11 38 4 7 5 16 2
19 -3 3 0 13 6 21 7 8 13 22 13 31 1 9 2 29 3 44 1 20 6 26 15 21 9 -6 9 -5 0
8 -7 8 -10 18 -6 21 3 4 6 23 5 42 -1 22 3 35 11 35 8 0 7 4 -3 10 -8 5 -10
10 -4 10 6 0 10 16 9 35 -1 19 2 35 8 35 5 0 4 7 -3 15 -7 8 -8 15 -3 15 5 0
9 23 8 50 0 28 2 50 5 50 8 0 3 67 -5 81 -5 8 -4 10 3 5 9 -5 10 7 6 45 -4 41
-3 50 8 43 10 -6 11 -5 1 7 -7 9 -12 38 -10 67 1 29 0 52 -3 52 -3 0 -5 19 -4
42 1 24 -3 51 -8 62 -7 13 -7 16 2 11 9 -6 9 -3 1 12 -7 14 -7 24 2 33 9 10 9
11 0 6 -9 -5 -13 0 -13 16 0 42 -2 63 -7 78 -3 8 -7 32 -9 54 -2 21 -7 43 -12
50 -4 6 -7 21 -6 34 0 12 -2 22 -6 22 -5 0 -6 9 -3 20 3 11 1 20 -4 20 -5 0
-9 10 -10 23 -2 36 -12 72 -22 75 -5 2 -7 12 -4 23 3 10 0 25 -6 32 -6 8 -8
17 -4 20 3 4 2 7 -4 7 -6 0 -9 9 -6 20 3 12 0 20 -8 20 -7 0 -9 3 -6 7 4 3 -1
15 -10 26 -10 11 -12 17 -5 13 16 -9 15 -1 -3 33 -8 16 -11 31 -8 35 4 3 1 6
-5 6 -7 0 -12 7 -12 15 0 18 -20 57 -35 67 -6 5 -6 8 2 8 8 0 8 6 0 24 -7 13
-14 23 -17 21 -3 -2 -6 11 -7 28 -2 18 -7 33 -13 35 -6 2 -8 7 -5 12 3 5 -1
14 -8 22 -8 7 -13 21 -11 31 1 9 -2 17 -6 17 -9 0 -25 40 -22 53 1 4 -1 7 -6
7 -4 0 -13 15 -21 33 -8 17 -23 45 -35 61 -11 16 -14 26 -7 21 11 -6 -22 48
-39 65 -3 3 -6 12 -8 20 -2 8 -8 17 -13 18 -5 2 -9 10 -9 18 0 8 -4 14 -8 14
-4 0 -13 12 -20 28 -22 49 -58 102 -65 95 -4 -3 -7 0 -7 9 0 8 -13 29 -30 48
-16 18 -27 37 -24 42 3 4 -2 11 -10 14 -9 3 -16 12 -16 20 0 8 -4 14 -10 14
-5 0 -10 7 -10 15 0 8 -4 15 -10 15 -5 0 -10 7 -10 15 0 8 -4 15 -10 15 -5 0
-10 6 -10 13 0 7 -8 20 -17 28 -10 9 -27 29 -38 44 -11 16 -35 45 -52 64 -18
20 -33 39 -33 44 0 4 -7 7 -17 7 -9 0 -13 3 -10 6 7 7 -81 94 -95 94 -5 0 -7
4 -3 9 3 5 -3 12 -13 15 -10 4 -25 18 -32 31 -7 14 -15 23 -17 21 -3 -2 -21
12 -42 33 -70 66 -122 111 -129 111 -4 0 -14 9 -22 20 -8 11 -20 20 -26 20 -7
0 -14 4 -16 8 -4 12 -95 72 -107 72 -6 0 -11 5 -11 10 0 6 -7 10 -15 10 -8 0
-15 5 -15 10 0 6 -7 10 -15 10 -8 0 -15 4 -15 8 0 5 -12 14 -27 21 -16 7 -48
24 -73 39 -25 15 -48 25 -52 24 -5 -1 -8 3 -8 9 0 5 -4 8 -9 5 -5 -4 -11 -3
-13 1 -4 10 -94 56 -104 53 -4 -1 -10 2 -13 7 -8 11 -103 57 -113 55 -5 -1 -8
3 -8 10 0 6 -3 8 -7 5 -3 -4 -17 0 -29 8 -13 8 -31 16 -41 18 -10 2 -29 9 -43
17 -14 7 -25 12 -25 11 0 -2 -45 13 -75 26 -8 3 -18 7 -22 8 -5 2 -9 3 -10 4
-2 2 -14 4 -27 7 -14 2 -31 10 -40 17 -12 10 -13 9 -7 -2 6 -9 1 -8 -16 3 -27
18 -214 60 -228 51 -4 -3 -10 -1 -12 4 -1 5 -30 11 -63 14 -33 3 -60 6 -60 7
0 1 -13 4 -30 6 -16 2 -46 7 -65 11 -19 3 -41 5 -47 4 -7 -1 -13 3 -13 9 0 6
-4 9 -8 6 -5 -3 -24 8 -43 25 -19 16 -38 29 -42 29 -5 0 -5 5 -2 10 3 6 -3 10
-15 10 -12 0 -19 3 -17 8 3 4 -1 13 -9 20 -8 7 -14 10 -14 7 0 -4 -7 0 -15 9
-8 8 -15 20 -15 26 0 6 -4 9 -8 6 -5 -3 -15 3 -24 12 -24 27 -57 52 -69 52 -5
0 -8 4 -5 9 3 4 -6 13 -19 19 -14 7 -25 16 -25 22 0 5 -7 10 -15 10 -8 0 -15
5 -15 10 0 6 -7 10 -15 10 -8 0 -15 5 -15 10 0 6 -7 10 -15 10 -8 0 -15 4 -15
9 0 5 -17 16 -38 24 -21 8 -44 22 -51 31 -8 9 -20 16 -27 16 -8 0 -14 3 -14 8
0 4 -15 13 -32 21 -18 8 -41 21 -50 29 -10 8 -18 11 -18 6 0 -5 -5 -2 -10 6
-5 8 -14 15 -20 15 -6 0 -15 7 -20 15 -5 8 -10 12 -10 8 0 -4 -15 0 -32 10
-35 19 -67 33 -69 29z"/>
</g>
</svg>
